<?xml version="1.0" encoding="iso-8859-1"?>
<!-- Generator: Adobe Illustrator 19.0.0, SVG Export Plug-In . SVG Version: 6.00 Build 0)  -->
<svg version="1.1" id="Layer_1" xmlns="http://www.w3.org/2000/svg" xmlns:xlink="http://www.w3.org/1999/xlink" x="0px" y="0px"
	 viewBox="0 0 505 505" style="enable-background:new 0 0 505 505;" xml:space="preserve">
<g>
	<path style="fill:#FD8469;" d="M505,252.5c0,120-83.7,220.5-196,246.1c-18.2,4.1-37.1,6.4-56.5,6.4c-18.7,0-37-2.1-54.6-5.9
		C84.7,474.1,0,373.2,0,252.5C0,113,113.1,0,252.5,0C392,0,505,113,505,252.5z"/>
	<circle style="fill:#FD8469;" cx="252.5" cy="252.5" r="252.5"/>
</g>
<path style="fill:#F9B54C;" d="M309,498.6c-18.2,4.1-37.1,6.4-56.5,6.4c-18.7,0-37-2.1-54.6-5.9l8-136.2H301L309,498.6z"/>
<path style="fill:#2B3B4E;" d="M141.6,178.3c-1,0-1.9-0.2-2.8-0.7c-12.4-6.9-19.5-15.8-21.1-26.5c-2.7-17.8,11.5-33.1,12.1-33.8
	c2.2-2.3,5.9-2.4,8.2-0.3c2.3,2.2,2.4,5.8,0.3,8.2l0,0c-0.1,0.1-11,12-9.1,24.2c1.1,6.9,6.2,13,15.3,18.1c2.8,1.6,3.8,5.1,2.2,7.9
	C145.6,177.2,143.6,178.3,141.6,178.3z"/>
<path style="fill:#324A5E;" d="M241.4,234.4c-8.9-73.6-50.2-96.8-51.9-97.8c-2.8-1.5-6.3-0.5-7.8,2.3s-0.5,6.3,2.3,7.8
	c0.3,0.2,26.3,14.8,39.7,58.8c-20.3-20.6-55-35.1-103.7-43.3c-10.9-1.8-19.9-6.7-26.2-14.1c-7.6-9-9.7-19.5-6.2-31.1
	c0.9-3.1-0.8-6.3-3.9-7.2c-3-0.9-6.3,0.8-7.2,3.9c-4.6,15.3-1.7,29.8,8.4,41.8c8,9.6,19.5,15.8,33.1,18.1
	c57,9.5,94.5,28.5,108.4,54.8c12.1,22.7,3,43.2,2.6,44.2c-1.3,2.9-0.1,6.3,2.8,7.7c0.8,0.4,1.6,0.5,2.4,0.5c2.2,0,4.3-1.2,5.2-3.3
	C239.9,276.6,248.5,257.5,241.4,234.4z"/>
<path style="fill:#2B3B4E;" d="M363.4,178.3c-2,0-4-1.1-5-3c-1.6-2.8-0.6-6.3,2.2-7.9c9.1-5.1,14.3-11.2,15.3-18.1
	c1.9-12.1-8.9-24-9.1-24.1c-2.2-2.3-2.1-6,0.3-8.2c2.3-2.2,6-2.1,8.2,0.3c0.6,0.6,14.8,16,12.1,33.8c-1.6,10.6-8.7,19.5-21.1,26.5
	C365.3,178.1,364.4,178.3,363.4,178.3z"/>
<g>
	<path style="fill:#324A5E;" d="M270.7,280.9c-2.2,0-4.3-1.2-5.2-3.3c-0.5-1.1-12-26.3,2.7-54.2c15.9-30.1,55.2-50.7,116.9-61
		c10.9-1.8,19.9-6.7,26.2-14.1c7.6-9,9.7-19.5,6.2-31.1c-0.9-3.1,0.8-6.3,3.9-7.2c3-0.9,6.3,0.8,7.2,3.9c4.6,15.3,1.7,29.8-8.4,41.8
		c-8,9.6-19.5,15.8-33.1,18.1c-57.1,9.5-94.6,28.5-108.5,54.9c-12,22.9-2.6,43.7-2.5,44c1.4,2.9,0.1,6.3-2.8,7.7
		C272.4,280.7,271.6,280.9,270.7,280.9z"/>
	<path style="fill:#324A5E;" d="M269.3,241.3c-0.2,0-0.5,0-0.7,0c-3.2-0.4-5.4-3.3-5.1-6.4c8.8-74,50.3-97.3,52-98.3
		c2.8-1.5,6.3-0.5,7.8,2.3s0.5,6.3-2.3,7.8c-0.5,0.3-38.1,21.9-46.1,89.5C274.7,239.2,272.2,241.3,269.3,241.3z"/>
</g>
<path style="fill:#F9B54C;" d="M401.7,204.3c0.1,3.7-1.5,8.9-7.9,14.9c-4.3,4.1-7.2,9.4-7.9,15.3c-2.4,17.9-12.4,55.4-53.1,61
	c0,0-5.2,0.4-11.3,3.6c-4.2,2.2-8.8,5.7-12.5,11.3L272.1,265c0,0,63.1-48.1,106.1-63.1c5.9-2,11.4-3.5,16.3-4.1
	C398.2,197.4,401.6,200.5,401.7,204.3z"/>
<path style="fill:#FFD05B;" d="M401.7,204.3c0.1,3.7-1.5,8.9-7.9,14.9c-4.3,4.1-7.2,9.4-7.9,15.3c-2.4,17.9-12.4,55.4-53.1,61
	c0,0-5.2,0.4-11.3,3.6c-6.8-9.7-5-20.2-4-24c0.2-0.9,0.5-1.7,0.9-2.5c4.8-9.5,11.4-11.3,16.4-11c4.6,0.3,9-2.2,10.6-6.6
	c8.5-23.2,22.1-41.4,32.8-53.1c5.9-2,11.4-3.5,16.3-4.1C398.2,197.4,401.6,200.5,401.7,204.3z"/>
<path style="fill:#F9B54C;" d="M103.3,204.3c-0.1,3.7,1.5,8.9,7.9,14.9c4.3,4.1,7.2,9.4,7.9,15.3c2.4,17.9,12.4,55.4,53.1,61
	c0,0,5.2,0.4,11.3,3.6c4.2,2.2,8.8,5.7,12.5,11.3l36.9-45.4c0,0-63.1-48.1-106.1-63.1c-5.9-2-11.4-3.5-16.3-4.1
	C106.8,197.4,103.4,200.5,103.3,204.3z"/>
<g>
	<path style="fill:#FFD05B;" d="M103.3,204.3c-0.1,3.7,1.5,8.9,7.9,14.9c4.3,4.1,7.2,9.4,7.9,15.3c2.4,17.9,12.4,55.4,53.1,61
		c0,0,5.2,0.4,11.3,3.6c6.8-9.7,5-20.2,4-24c-0.2-0.9-0.5-1.7-0.9-2.5c-4.8-9.5-11.4-11.3-16.4-11c-4.6,0.3-9-2.2-10.6-6.6
		c-8.5-23.2-22.1-41.4-32.8-53.1c-5.9-2-11.4-3.5-16.3-4.1C106.8,197.4,103.4,200.5,103.3,204.3z"/>
	<path style="fill:#FFD05B;" d="M316.1,338.4c0.1,3.6,0.1,7.3-0.9,10.8c-0.2,0.5-0.3,1.1-0.5,1.6c-0.7,1.9-1.5,3.8-1.9,5.8
		c-0.7,3-0.4,6-0.5,9.1c-0.3,13.6-7.1,26.2-12.3,38.8c-4.9,12-8.6,24.6-15.9,35.4c-7.1,10.4-18.5,19.2-31.5,19.6l0,0
		c-13-0.4-24.5-9.2-31.5-19.6c-7.3-10.8-11-23.4-15.9-35.4c-5.2-12.7-12-25.2-12.3-38.8c-0.1-3,0.2-6.1-0.5-9.1
		c-0.5-2.5-1.7-4.9-2.5-7.4c-1.1-3.8-1-7.9-0.8-11.9c0.9-18.2-2.5-36.3,3.3-53.7c2.8-8.4,5.8-32.4,60.2-32.7l0,0
		c54.4,0.2,57.4,24.3,60.2,32.7c2.4,7.1,3.2,14.2,3.4,21.5c0.2,5.8,0,11.7-0.2,17.7c-0.1,4.8-0.2,9.7,0.1,14.5
		C316.1,337.6,316.1,338,316.1,338.4z"/>
</g>
<path style="fill:#F9B54C;" d="M189,338.4c2.6,4.6,8.2,7,20.3-0.3c0,0,3.8-3.3,9.7,3.6c0,0-7-39.2-29.9-18.9
	c0.1,4.8,0.2,9.7-0.1,14.5C189,337.6,189,338,189,338.4z"/>
<path style="fill:#FFFFFF;" d="M190.1,326.2c0,6.3,5.1,11.5,11.5,11.5s11.5-5.1,11.5-11.5c0-0.3,0-0.5,0-0.8
	c-4.2-7.2-11.1-12.4-21.6-4.6C190.6,322.4,190.1,324.2,190.1,326.2z"/>
<circle style="fill:#324A5E;" cx="201.6" cy="328.8" r="8.9"/>
<g>
	<circle style="fill:#FFFFFF;" cx="204.1" cy="325.5" r="1.8"/>
	<path style="fill:#FFFFFF;" d="M275.1,397.2c-24.3-16.7-2-73.5-2-73.5l-14.7-18.6l16.7-25.9l-22.6-16.8l-22.6,16.7l16.7,25.9
		l-14.7,18.6c0,0,22.3,56.8-2,73.5s-17.9,50.7,11.3,59.8h11.3h11.3C293.1,447.8,299.5,413.9,275.1,397.2z"/>
</g>
<path style="fill:#F9B54C;" d="M316.1,338.4c-2.6,4.6-8.2,7-20.3-0.3c0,0-3.8-3.3-9.7,3.6c0,0,7-39.2,29.9-18.9
	c-0.1,4.8-0.2,9.7,0.1,14.5C316,337.6,316.1,338,316.1,338.4z"/>
<path style="fill:#FFFFFF;" d="M314.9,326.2c0,6.3-5.1,11.5-11.5,11.5s-11.5-5.1-11.5-11.5c0-0.3,0-0.5,0-0.8
	c4.2-7.2,11.1-12.4,21.6-4.6C314.4,322.4,314.9,324.2,314.9,326.2z"/>
<circle style="fill:#324A5E;" cx="303.4" cy="328.8" r="8.9"/>
<circle style="fill:#FFFFFF;" cx="300.9" cy="325.5" r="1.8"/>
<ellipse style="fill:#2B3B4E;" cx="252.5" cy="428.4" rx="31.9" ry="22"/>
<path style="fill:#324A5E;" d="M275.7,437.9c-2.3-2.2-2.2-5.8,0.3-7.8c3.7-3.1,5.9-6.9,5.9-11c0-10.1-13.1-18.3-29.3-18.3
	s-29.3,8.2-29.3,18.3c0,4.1,2.2,7.9,5.9,11c2.5,2,2.6,5.7,0.3,7.8c-3.9,3.6-6.2,8-6.2,12.9c0,11.6,13.1,21.1,29.3,21.1
	s29.3-9.4,29.3-21.1C281.8,445.9,279.5,441.4,275.7,437.9z"/>
<g>
	<path style="fill:#2B3B4E;" d="M291.9,325.4c0,0,4.6-17.6,30.7-5.4l-5.9-0.9l2.6,3l-5.5-2.6l2.9,3.6
		C316.7,323.1,305.6,311.8,291.9,325.4z"/>
	<path style="fill:#2B3B4E;" d="M213.1,325.4c0,0-4.6-17.6-30.7-5.4l5.9-0.9l-2.6,3l5.5-2.6l-2.9,3.6
		C188.3,323.1,199.5,311.8,213.1,325.4z"/>
</g>
<g>
</g>
<g>
</g>
<g>
</g>
<g>
</g>
<g>
</g>
<g>
</g>
<g>
</g>
<g>
</g>
<g>
</g>
<g>
</g>
<g>
</g>
<g>
</g>
<g>
</g>
<g>
</g>
<g>
</g>
</svg>
